<?xml version="1.0" encoding="UTF-8" standalone="no"?>
<svg
   xmlns:dc="http://purl.org/dc/elements/1.1/"
   xmlns:cc="http://creativecommons.org/ns#"
   xmlns:rdf="http://www.w3.org/1999/02/22-rdf-syntax-ns#"
   xmlns:svg="http://www.w3.org/2000/svg"
   xmlns="http://www.w3.org/2000/svg"
   id="svg4699"
   version="1.1"
   viewBox="0 0 210 297"
   height="297mm"
   width="210mm">
  <defs
     id="defs4693">
    <clipPath
       id="clipPath396"
       clipPathUnits="userSpaceOnUse">
      <path
         id="path398"
         d="m 19.974,604.677 347.379,0 0,90.988 -347.379,0 0,-90.988 z" />
    </clipPath>
    <clipPath
       id="clipPath364"
       clipPathUnits="userSpaceOnUse">
      <path
         id="path366"
         d="m 128.019,692.219 0.268,-26.78 c 0,0 -44.165,24.617 -46.347,25.807 l 0,0 c -2.186,1.193 -4.284,1.157 -6.169,-0.053 l 0,0 C 74.412,690.325 60.375,681.4 58.536,680.331 l 0,0 c -1.899,-1.106 -2.413,-2.167 -2.413,-2.167 l 0,0 95.188,-54.344 c 0,0 0.49,0.821 0.535,1.827 l 0,0 c 0.035,0.754 -0.599,49.146 -0.631,50.403 l 0,0 c -0.074,2.713 -0.725,4.003 -2.296,4.928 l 0,0 c -1.007,0.593 -12.584,7.229 -18.079,10.298 l 0,0 c -1.535,0.856 -2.395,0.95 -2.697,0.95 l 0,0 c -0.084,0 -0.124,-0.007 -0.124,-0.007" />
    </clipPath>
    <clipPath
       id="clipPath374"
       clipPathUnits="userSpaceOnUse">
      <path
         id="path376"
         d="m 56.122814,692.43891 95.757636,0 0,-68.61881 -95.757636,0 0,68.61881 z" />
    </clipPath>
    <linearGradient
       id="linearGradient378"
       spreadMethod="pad"
       gradientTransform="matrix(95.725098,0,0,-95.725098,56.122805,658.02306)"
       gradientUnits="userSpaceOnUse"
       y2="0"
       x2="1"
       y1="0"
       x1="0">
      <stop
         id="stop380"
         offset="0"
         style="stop-opacity:1;stop-color:#80d6f7" />
      <stop
         id="stop382"
         offset="0.16299281"
         style="stop-opacity:1;stop-color:#2e9bdd" />
      <stop
         id="stop384"
         offset="0.5"
         style="stop-opacity:1;stop-color:#2e9bdd" />
      <stop
         id="stop386"
         offset="0.76213357"
         style="stop-opacity:1;stop-color:#2e9bdd" />
      <stop
         id="stop388"
         offset="1"
         style="stop-opacity:1;stop-color:#293f9c" />
    </linearGradient>
    <clipPath
       id="clipPath336"
       clipPathUnits="userSpaceOnUse">
      <path
         id="path338"
         d="m 80.838,610.7 c 0,0 0.813,-0.034 1.587,0.457 l 0,0 c 0.919,0.578 22.204,13.153 22.204,13.153 l 0,0 -23.563,13.348 -0.228,-26.958 z" />
    </clipPath>
    <clipPath
       id="clipPath346"
       clipPathUnits="userSpaceOnUse">
      <path
         id="path348"
         d="m 80.837654,637.65818 23.791056,0 0,-26.99166 -23.791056,0 0,26.99166 z" />
    </clipPath>
    <linearGradient
       id="linearGradient350"
       spreadMethod="pad"
       gradientTransform="matrix(23.790652,0,0,-23.790652,80.837824,624.17871)"
       gradientUnits="userSpaceOnUse"
       y2="0"
       x2="1"
       y1="0"
       x1="0">
      <stop
         id="stop352"
         offset="0"
         style="stop-opacity:1;stop-color:#2e9bdd" />
      <stop
         id="stop354"
         offset="0.73696312"
         style="stop-opacity:1;stop-color:#293f9c" />
      <stop
         id="stop356"
         offset="1"
         style="stop-opacity:1;stop-color:#293f9c" />
    </linearGradient>
    <clipPath
       id="clipPath260"
       clipPathUnits="userSpaceOnUse">
      <path
         id="path262"
         d="m 19.974,604.677 347.379,0 0,90.988 -347.379,0 0,-90.988 z" />
    </clipPath>
    <linearGradient
       id="linearGradient350-6"
       spreadMethod="pad"
       gradientTransform="matrix(29.738315,0,0,29.738315,442.75791,527.06493)"
       gradientUnits="userSpaceOnUse"
       y2="0"
       x2="1"
       y1="0"
       x1="0">
      <stop
         id="stop352-7"
         offset="0"
         style="stop-opacity:1;stop-color:#2e9bdd" />
      <stop
         id="stop354-5"
         offset="0.73696312"
         style="stop-opacity:1;stop-color:#293f9c" />
      <stop
         id="stop356-3"
         offset="1"
         style="stop-opacity:1;stop-color:#293f9c" />
    </linearGradient>
    <linearGradient
       id="linearGradient378-5"
       spreadMethod="pad"
       gradientTransform="matrix(119.65637,0,0,119.65637,411.86413,484.7595)"
       gradientUnits="userSpaceOnUse"
       y2="0"
       x2="1"
       y1="0"
       x1="0">
      <stop
         id="stop380-6"
         offset="0"
         style="stop-opacity:1;stop-color:#80d6f7" />
      <stop
         id="stop382-2"
         offset="0.16299281"
         style="stop-opacity:1;stop-color:#2e9bdd" />
      <stop
         id="stop384-9"
         offset="0.5"
         style="stop-opacity:1;stop-color:#2e9bdd" />
      <stop
         id="stop386-1"
         offset="0.76213357"
         style="stop-opacity:1;stop-color:#2e9bdd" />
      <stop
         id="stop388-2"
         offset="1"
         style="stop-opacity:1;stop-color:#293f9c" />
    </linearGradient>
  </defs>
  <metadata
     id="metadata4696">
    <rdf:RDF>
      <cc:Work
         rdf:about="">
        <dc:format>image/svg+xml</dc:format>
        <dc:type
           rdf:resource="http://purl.org/dc/dcmitype/StillImage" />
        <dc:title></dc:title>
      </cc:Work>
    </rdf:RDF>
  </metadata>
  <g
     id="layer1">
    <g
       transform="matrix(0.28222222,0,0,0.28222222,-32.087846,-31.301311)"
       id="layer1-3">
      <g
         id="g5762">
        <path
           id="path358"
           style="fill:url(#linearGradient350-6);stroke:none;stroke-width:1.24999988"
           d="m 442.75813,543.91332 c 0,0 1.01625,0.0425 1.98375,-0.57125 v 0 c 1.14875,-0.7225 27.755,-16.44125 27.755,-16.44125 v 0 l -29.45375,-16.685 z" />
        <path
           id="path390"
           style="fill:url(#linearGradient378-5);stroke:none;stroke-width:1.24999988"
           d="m 501.73438,442.01457 0.335,33.475 c 0,0 -55.20625,-30.77125 -57.93375,-32.25875 v 0 c -2.7325,-1.49125 -5.355,-1.44625 -7.71125,0.0662 v 0 c -1.69875,1.085 -19.245,12.24125 -21.54375,13.5775 v 0 c -2.37375,1.3825 -3.01625,2.70875 -3.01625,2.70875 v 0 l 118.98501,67.93 c 0,0 0.61249,-1.02625 0.66874,-2.28375 v 0 c 0.0438,-0.9425 -0.74875,-61.4325 -0.78874,-63.00375 v 0 c -0.0925,-3.39125 -0.90626,-5.00375 -2.87,-6.16 v 0 c -1.25875,-0.74125 -15.73,-9.03625 -22.59876,-12.8725 v 0 c -1.91875,-1.07 -2.99375,-1.1875 -3.37125,-1.1875 v 0 c -0.105,0 -0.155,0.009 -0.155,0.009" />
        <path
           id="path402"
           style="fill:#80d6f7;fill-opacity:1;fill-rule:nonzero;stroke:none;stroke-width:1.24999988"
           d="m 471.82038,458.63189 c 0,0 24.285,-14.155 26.3475,-15.355 2.30251,-1.3425 3.565,-1.26125 3.565,-1.26125 l 0.33625,33.4725 z" />
        <path
           id="path406"
           style="fill:#80d6f7;fill-opacity:1;fill-rule:nonzero;stroke:none;stroke-width:1.24999988"
           d="m 411.86413,459.58339 c 0,0 -0.81125,1.0675 -0.81125,3.025 0,1.4575 0.41,50.55625 0.5,61.92625 0.01,1.48375 0.185,2.35625 2.29625,3.585 0.58125,0.3375 25.91625,14.72874 26.72375,15.1325 1.33375,0.68374 2.215,0.66124 2.215,0.66124 l 0.2675,-33.64874 c 0,0 57.39376,32.46625 58.51251,33.085 1.24875,0.69124 2.7425,0.72124 3.99625,0.007 0.81624,-0.465 16.8525,-10.00625 23.22249,-13.79375 1.56,-0.925 2.0625,-2.08375 2.0625,-2.08375 z" />
      </g>
    </g>
  </g>
</svg>
